<svg width="15" height="15" viewBox="0 0 15 15" fill="none" xmlns="http://www.w3.org/2000/svg">
<path d="M2.00019 0.000187546C1.8296 0.000187546 1.65883 0.0651667 1.52883 0.1955L0.1955 1.52883C-0.0651667 1.7895 -0.0651667 2.21154 0.1955 2.47154L5.05748 7.33352L0.1955 12.1955C-0.0651667 12.4562 -0.0651667 12.8782 0.1955 13.1382L1.52883 14.4715C1.7895 14.7322 2.21154 14.7322 2.47154 14.4715L7.33352 9.60956L12.1955 14.4715C12.4555 14.7322 12.8782 14.7322 13.1382 14.4715L14.4715 13.1382C14.7322 12.8775 14.7322 12.4555 14.4715 12.1955L9.60956 7.33352L14.4715 2.47154C14.7322 2.21154 14.7322 1.78883 14.4715 1.52883L13.1382 0.1955C12.8775 -0.0651667 12.4555 -0.0651667 12.1955 0.1955L7.33352 5.05748L2.47154 0.1955C2.34121 0.0651667 2.17077 0.000187546 2.00019 0.000187546Z" fill="black"/>
</svg>
